<svg xmlns="http://www.w3.org/2000/svg" viewBox="0 0 512 512"><g transform="translate(0 512) scale(1 -1)"><path fill="#fff" d="M58 436C49 428 49 414 58 406L111 353C108 342 107 331 107 320C107 231 201 108 240 62C248 51 264 51 272 62C286 78 307 105 328 135L384 79C393 71 406 71 415 79C423 87 423 101 415 109L88 436C80 444 66 444 58 436ZM256 469C217 469 181 454 155 430L223 362C232 369 243 373 256 373C285 373 309 349 309 320C309 307 305 296 297 287L373 211C392 248 405 287 405 320C405 403 339 469 256 469Z"/></g></svg>