<svg xmlns="http://www.w3.org/2000/svg" viewBox="0 0 512 512"><g transform="translate(0 512) scale(1 -1)"><path fill="#fff" d="M288 395C311 395 331 414 331 437C331 461 311 480 288 480C265 480 245 461 245 437C245 414 265 395 288 395ZM209 322 154 47C152 34 162 21 175 21H177C187 21 196 28 198 38L233 192L277 149V43C277 31 287 21 299 21C310 21 320 31 320 43V163C320 175 315 186 307 194L275 224L288 288C311 262 344 243 381 237C394 235 405 245 405 258C405 268 398 277 387 279C355 284 328 303 314 329L292 363C280 382 256 389 236 381L154 346C138 339 128 324 128 307V256C128 244 138 235 149 235C161 235 171 244 171 256V307L209 322Z"/></g></svg>